<mxfile host="Electron" modified="2024-05-14T19:40:40.650Z" agent="Mozilla/5.0 (Macintosh; Intel Mac OS X 10_15_7) AppleWebKit/537.36 (KHTML, like Gecko) draw.io/22.1.15 Chrome/120.0.6099.109 Electron/28.1.0 Safari/537.36" etag="6dd0aKi0Ppw6BFm1n8Q_" version="22.1.15" type="device">
  <diagram name="第 1 页" id="SmYzHDOvoi1OK0cumqIP">
    <mxGraphModel dx="615" dy="449" grid="1" gridSize="10" guides="1" tooltips="1" connect="1" arrows="1" fold="1" page="1" pageScale="1" pageWidth="827" pageHeight="1169" math="0" shadow="0">
      <root>
        <mxCell id="0" />
        <mxCell id="1" parent="0" />
        <mxCell id="YQsNX_yfag95yCAxfMc1-3" style="edgeStyle=orthogonalEdgeStyle;rounded=0;orthogonalLoop=1;jettySize=auto;html=1;exitX=0;exitY=0;exitDx=0;exitDy=0;" edge="1" parent="1" source="YQsNX_yfag95yCAxfMc1-1">
          <mxGeometry relative="1" as="geometry">
            <mxPoint x="332" y="160" as="targetPoint" />
          </mxGeometry>
        </mxCell>
        <mxCell id="YQsNX_yfag95yCAxfMc1-4" style="edgeStyle=orthogonalEdgeStyle;rounded=0;orthogonalLoop=1;jettySize=auto;html=1;exitX=1;exitY=0;exitDx=0;exitDy=0;" edge="1" parent="1" source="YQsNX_yfag95yCAxfMc1-1">
          <mxGeometry relative="1" as="geometry">
            <mxPoint x="388" y="180" as="targetPoint" />
          </mxGeometry>
        </mxCell>
        <mxCell id="YQsNX_yfag95yCAxfMc1-1" value="" style="ellipse;whiteSpace=wrap;html=1;aspect=fixed;" vertex="1" parent="1">
          <mxGeometry x="320" y="280" width="80" height="80" as="geometry" />
        </mxCell>
        <mxCell id="YQsNX_yfag95yCAxfMc1-5" value="F&lt;sub style=&quot;font-size: 14px;&quot;&gt;d&lt;/sub&gt;&amp;nbsp;= -bv" style="text;html=1;strokeColor=none;fillColor=none;align=center;verticalAlign=middle;whiteSpace=wrap;rounded=0;fontSize=14;fontFamily=Times New Roman;fontStyle=0" vertex="1" parent="1">
          <mxGeometry x="400" y="190" width="60" height="30" as="geometry" />
        </mxCell>
        <mxCell id="YQsNX_yfag95yCAxfMc1-8" value="F&lt;sub style=&quot;font-size: 14px;&quot;&gt;k&lt;/sub&gt;&amp;nbsp;= -kx" style="text;html=1;strokeColor=none;fillColor=none;align=center;verticalAlign=middle;whiteSpace=wrap;rounded=0;fontSize=14;fontFamily=Times New Roman;fontStyle=0" vertex="1" parent="1">
          <mxGeometry x="260" y="170" width="60" height="30" as="geometry" />
        </mxCell>
      </root>
    </mxGraphModel>
  </diagram>
</mxfile>
